<svg width="1400" height="1400" viewBox="0 0 1400 1400" fill="none" xmlns="http://www.w3.org/2000/svg">
  <defs>
    <radialGradient id="bg" cx="0" cy="0" r="1" gradientUnits="userSpaceOnUse" gradientTransform="translate(750 650) rotate(90) scale(760)">
      <stop offset="0" stop-color="#064A51"/>
      <stop offset="0.34" stop-color="#032545"/>
      <stop offset="1" stop-color="#02112C"/>
    </radialGradient>
    <radialGradient id="nebula" cx="0" cy="0" r="1" gradientUnits="userSpaceOnUse" gradientTransform="translate(850 530) rotate(124) scale(520 710)">
      <stop offset="0" stop-color="#00B4A0" stop-opacity="0.34"/>
      <stop offset="0.48" stop-color="#01A361" stop-opacity="0.12"/>
      <stop offset="1" stop-color="#02112C" stop-opacity="0"/>
    </radialGradient>
    <radialGradient id="goldGlow" cx="0" cy="0" r="1" gradientUnits="userSpaceOnUse" gradientTransform="translate(720 705) scale(390)">
      <stop offset="0" stop-color="#FFD700" stop-opacity="0.42"/>
      <stop offset="0.44" stop-color="#D4AF37" stop-opacity="0.16"/>
      <stop offset="1" stop-color="#D4AF37" stop-opacity="0"/>
    </radialGradient>
    <radialGradient id="sun" cx="0" cy="0" r="1" gradientUnits="userSpaceOnUse" gradientTransform="translate(628 552) rotate(118) scale(300 316)">
      <stop offset="0" stop-color="#FFF6BE"/>
      <stop offset="0.2" stop-color="#FFD700"/>
      <stop offset="0.48" stop-color="#D4AF37"/>
      <stop offset="0.74" stop-color="#8A6A16"/>
      <stop offset="1" stop-color="#3B2708"/>
    </radialGradient>
    <radialGradient id="moon" cx="0" cy="0" r="1" gradientUnits="userSpaceOnUse" gradientTransform="translate(836 728) rotate(132) scale(310 345)">
      <stop offset="0" stop-color="#FFF4B7"/>
      <stop offset="0.24" stop-color="#D4AF37"/>
      <stop offset="0.68" stop-color="#6A4B10"/>
      <stop offset="1" stop-color="#1F1708"/>
    </radialGradient>
    <linearGradient id="goldStroke" x1="269" y1="200" x2="1129" y2="1160" gradientUnits="userSpaceOnUse">
      <stop stop-color="#F7E7A6"/>
      <stop offset="0.42" stop-color="#D4AF37"/>
      <stop offset="1" stop-color="#8A6A16"/>
    </linearGradient>
    <filter id="softGlow" x="-20%" y="-20%" width="140%" height="140%" color-interpolation-filters="sRGB">
      <feGaussianBlur stdDeviation="18" result="blur"/>
      <feColorMatrix in="blur" type="matrix" values="1 0 0 0 0.95 0 1 0 0 0.68 0 0 1 0 0.12 0 0 0 0.75 0"/>
      <feBlend in="SourceGraphic" mode="screen"/>
    </filter>
    <filter id="metalShadow" x="-30%" y="-30%" width="160%" height="160%" color-interpolation-filters="sRGB">
      <feDropShadow dx="-18" dy="24" stdDeviation="28" flood-color="#000512" flood-opacity="0.68"/>
      <feDropShadow dx="0" dy="0" stdDeviation="32" flood-color="#FFD700" flood-opacity="0.28"/>
    </filter>
    <filter id="lineGlow" x="-10%" y="-10%" width="120%" height="120%">
      <feGaussianBlur stdDeviation="1.2" result="glow"/>
      <feMerge>
        <feMergeNode in="glow"/>
        <feMergeNode in="SourceGraphic"/>
      </feMerge>
    </filter>
    <clipPath id="moonCut">
      <circle cx="770" cy="684" r="294"/>
    </clipPath>
  </defs>

  <rect width="1400" height="1400" fill="url(#bg)"/>
  <rect width="1400" height="1400" fill="url(#nebula)"/>
  <circle cx="720" cy="705" r="430" fill="url(#goldGlow)"/>

  <g opacity="0.88">
    <circle cx="111" cy="145" r="2" fill="#F0F0F0"/>
    <circle cx="248" cy="262" r="1.7" fill="#FFD700"/>
    <circle cx="1268" cy="192" r="2.4" fill="#F0F0F0"/>
    <circle cx="1160" cy="410" r="1.5" fill="#F0F0F0"/>
    <circle cx="210" cy="880" r="1.4" fill="#F0F0F0"/>
    <circle cx="1188" cy="1050" r="2" fill="#D4AF37"/>
    <circle cx="334" cy="1156" r="1.5" fill="#F0F0F0"/>
    <circle cx="987" cy="1230" r="1.4" fill="#F0F0F0"/>
    <circle cx="1036" cy="88" r="1.5" fill="#F0F0F0"/>
    <circle cx="92" cy="575" r="1.8" fill="#F0F0F0"/>
    <circle cx="1326" cy="720" r="1.7" fill="#FFD700"/>
  </g>

  <g stroke="url(#goldStroke)" stroke-width="2" opacity="0.42" filter="url(#lineGlow)">
    <circle cx="704" cy="684" r="475"/>
    <circle cx="704" cy="684" r="386" stroke-dasharray="9 18"/>
    <circle cx="704" cy="684" r="305"/>
    <path d="M704 210 1115 921H293L704 210Z"/>
    <path d="M293 447H1115L704 1158 293 447Z"/>
    <path d="M260 684H1148M704 240V1128M390 370l628 628M1018 370 390 998"/>
  </g>

  <g stroke="#D4AF37" stroke-width="2.2" opacity="0.52">
    <path d="M186 530 284 474 401 515 536 430 660 482" stroke-dasharray="8 14"/>
    <circle cx="186" cy="530" r="5" fill="#F7E7A6"/>
    <circle cx="284" cy="474" r="4" fill="#F7E7A6"/>
    <circle cx="401" cy="515" r="5" fill="#F7E7A6"/>
    <circle cx="536" cy="430" r="4" fill="#F7E7A6"/>
    <circle cx="660" cy="482" r="5" fill="#F7E7A6"/>
    <path d="M820 1000 928 946 1036 1012 1158 908 1245 950" stroke-dasharray="8 14"/>
    <circle cx="820" cy="1000" r="5" fill="#F7E7A6"/>
    <circle cx="928" cy="946" r="4" fill="#F7E7A6"/>
    <circle cx="1036" cy="1012" r="5" fill="#F7E7A6"/>
    <circle cx="1158" cy="908" r="4" fill="#F7E7A6"/>
    <circle cx="1245" cy="950" r="5" fill="#F7E7A6"/>
  </g>

  <g filter="url(#metalShadow)">
    <circle cx="640" cy="590" r="246" fill="url(#sun)"/>
    <path d="M640 284 672 380 760 326 748 432 856 424 782 502 878 554 774 590 844 672 740 656 746 764 668 692 616 790 590 684 488 734 534 638 430 614 524 566 456 484 562 500 548 392 626 466 640 284Z" fill="url(#sun)" opacity="0.82"/>
    <circle cx="640" cy="590" r="184" fill="url(#sun)"/>
    <circle cx="578" cy="505" r="56" fill="#FFF2B1" opacity="0.42"/>
    <path d="M790 428C692 496 648 634 706 766C760 890 886 964 1008 946C908 1024 748 1018 632 916C486 786 454 570 560 404C614 320 694 265 784 246C740 290 742 358 790 428Z" fill="url(#moon)" clip-path="url(#moonCut)"/>
    <path d="M821 415C760 487 740 602 790 717C838 828 940 900 1044 908C976 956 852 938 748 850C610 733 575 532 674 388C712 334 761 296 815 278C782 324 786 375 821 415Z" fill="#02112C" opacity="0.72"/>
  </g>

  <g font-family="Georgia, 'Times New Roman', serif" font-size="92" font-weight="700" fill="#D4AF37" opacity="0.86" filter="url(#softGlow)">
    <text x="214" y="328">1</text>
    <text x="1130" y="340">3</text>
    <text x="206" y="1118">7</text>
    <text x="1124" y="1120">9</text>
  </g>
  <rect width="1400" height="1400" fill="url(#bg)" opacity="0.1"/>
</svg>
