<svg xmlns="http://www.w3.org/2000/svg" viewBox="0 0 520 520" fill="none">
  <defs>
    <radialGradient id="sun" cx="50%" cy="50%" r="50%">
      <stop offset="0" stop-color="#FFFFFF"/>
      <stop offset=".22" stop-color="#FFF9F0"/>
      <stop offset=".52" stop-color="#F3D382" stop-opacity=".86"/>
      <stop offset=".8" stop-color="#D8AF66" stop-opacity=".28"/>
      <stop offset="1" stop-color="#D8AF66" stop-opacity="0"/>
    </radialGradient>
    <linearGradient id="ray" x1="260" y1="24" x2="260" y2="496">
      <stop stop-color="#FFF9F0" stop-opacity=".95"/><stop offset="1" stop-color="#D8AF66" stop-opacity="0"/>
    </linearGradient>
  </defs>
  <g opacity=".72">
    <path d="M260 12l24 176h-48L260 12Z" fill="url(#ray)"/>
    <path d="M260 508l-24-176h48l-24 176Z" fill="url(#ray)"/>
    <path d="M12 260l176-24v48L12 260Z" fill="url(#ray)"/>
    <path d="M508 260l-176 24v-48l176 24Z" fill="url(#ray)"/>
    <path d="M84 84l142 108-34 34L84 84Z" fill="url(#ray)"/>
    <path d="M436 436L294 328l34-34 108 142Z" fill="url(#ray)"/>
    <path d="M436 84L328 226l-34-34L436 84Z" fill="url(#ray)"/>
    <path d="M84 436l108-142 34 34L84 436Z" fill="url(#ray)"/>
  </g>
  <circle cx="260" cy="260" r="246" fill="url(#sun)"/>
  <circle cx="260" cy="260" r="112" stroke="#F7EAD3" stroke-opacity=".84" stroke-width="2"/>
</svg>
