<svg xmlns="http://www.w3.org/2000/svg" viewBox="0 0 800 800" fill="none">
  <defs>
    <radialGradient id="atmosphere" cx="50%" cy="49%" r="52%">
      <stop offset="0" stop-color="#183B5B" stop-opacity=".92"/>
      <stop offset=".42" stop-color="#0D2438" stop-opacity=".72"/>
      <stop offset=".72" stop-color="#143653" stop-opacity=".28"/>
      <stop offset="1" stop-color="#DCE8F7" stop-opacity="0"/>
    </radialGradient>
    <linearGradient id="gold" x1="132" y1="84" x2="668" y2="716">
      <stop stop-color="#FFF9F0"/>
      <stop offset=".32" stop-color="#F3D382"/>
      <stop offset=".68" stop-color="#D8AF66"/>
      <stop offset="1" stop-color="#A86D24"/>
    </linearGradient>
    <filter id="softGlow" x="-20%" y="-20%" width="140%" height="140%">
      <feGaussianBlur stdDeviation="7" result="blur"/>
      <feMerge><feMergeNode in="blur"/><feMergeNode in="SourceGraphic"/></feMerge>
    </filter>
  </defs>
  <circle cx="400" cy="400" r="382" fill="url(#atmosphere)"/>
  <circle cx="400" cy="400" r="340" stroke="url(#gold)" stroke-width="3.5" stroke-opacity=".92"/>
  <circle cx="400" cy="400" r="304" stroke="#F7EAD3" stroke-width="1.5" stroke-opacity=".48"/>
  <circle cx="400" cy="400" r="252" stroke="#D8AF66" stroke-width="1.5" stroke-opacity=".40"/>
  <circle cx="400" cy="400" r="188" stroke="#8DB2D0" stroke-width="1.25" stroke-opacity=".30"/>
  <g stroke="#D8AF66" stroke-linecap="round">
    <g stroke-opacity=".70" stroke-width="2">
      <path d="M400 58v30M400 712v30M58 400h30M712 400h30"/>
      <path d="M158.2 158.2l21.2 21.2M620.6 620.6l21.2 21.2M641.8 158.2l-21.2 21.2M179.4 620.6l-21.2 21.2"/>
    </g>
    <g stroke-opacity=".32" stroke-width="1">
      <path d="M400 86v628M86 400h628M178 178l444 444M622 178 178 622"/>
      <path d="M242.8 107.6 557.2 692.4M557.2 107.6 242.8 692.4M107.6 242.8 692.4 557.2M692.4 242.8 107.6 557.2"/>
    </g>
  </g>
  <g stroke="#F3D382" stroke-width="1.75" stroke-linecap="round" stroke-opacity=".62">
    <path d="M400 101v18" transform="rotate(15 400 400)"/><path d="M400 101v18" transform="rotate(45 400 400)"/>
    <path d="M400 101v18" transform="rotate(75 400 400)"/><path d="M400 101v18" transform="rotate(105 400 400)"/>
    <path d="M400 101v18" transform="rotate(135 400 400)"/><path d="M400 101v18" transform="rotate(165 400 400)"/>
    <path d="M400 101v18" transform="rotate(195 400 400)"/><path d="M400 101v18" transform="rotate(225 400 400)"/>
    <path d="M400 101v18" transform="rotate(255 400 400)"/><path d="M400 101v18" transform="rotate(285 400 400)"/>
    <path d="M400 101v18" transform="rotate(315 400 400)"/><path d="M400 101v18" transform="rotate(345 400 400)"/>
  </g>
  <g fill="#FFF9F0" font-family="Georgia, 'Times New Roman', serif" font-size="34" font-weight="700" text-anchor="middle" filter="url(#softGlow)">
    <text x="400" y="92">♈</text><text x="553" y="133">♉</text><text x="666" y="246">♊</text><text x="706" y="410">♋</text>
    <text x="666" y="574">♌</text><text x="553" y="687">♍</text><text x="400" y="728">♎</text><text x="247" y="687">♏</text>
    <text x="134" y="574">♐</text><text x="94" y="410">♑</text><text x="134" y="246">♒</text><text x="247" y="133">♓</text>
  </g>
  <circle cx="400" cy="400" r="118" fill="none" stroke="url(#gold)" stroke-width="2" stroke-opacity=".72"/>
</svg>
