<svg xmlns="http://www.w3.org/2000/svg" viewBox="0 0 64 64">
  <defs>
    <linearGradient id="g" x1="0" x2="1" y1="0" y2="1">
      <stop offset="0" stop-color="#8b5cf6"/>
      <stop offset="1" stop-color="#f5be58"/>
    </linearGradient>
  </defs>
  <rect width="64" height="64" rx="14" fill="#12091f"/>
  <circle cx="30" cy="34" r="19" fill="url(#g)"/>
  <path d="M35 15c-9 5-13 15-8 24 4 8 13 12 21 9-6 8-18 10-28 4C10 46 6 32 12 22c5-9 14-12 23-7Z" fill="#fff7d6"/>
  <path d="m47 13 2 6 6 2-6 2-2 6-2-6-6-2 6-2 2-6Z" fill="#f5be58"/>
</svg>
