<svg xmlns="http://www.w3.org/2000/svg" viewBox="0 0 320 80" role="img" aria-labelledby="title desc">
  <title id="title">Naksharix logo</title>
  <desc id="desc">Luxury cosmic astrology brand mark</desc>
  <defs>
    <linearGradient id="g" x1="0" x2="1" y1="0" y2="1">
      <stop offset="0" stop-color="#8b5cf6"/>
      <stop offset="0.52" stop-color="#c69cff"/>
      <stop offset="1" stop-color="#f5be58"/>
    </linearGradient>
  </defs>
  <rect width="320" height="80" rx="18" fill="#12091f"/>
  <circle cx="42" cy="40" r="24" fill="url(#g)"/>
  <path d="M47 22c-10 5-15 16-10 26 4 9 14 14 24 11-6 7-18 10-28 5-13-6-19-21-13-34 5-10 16-15 27-8Z" fill="#fff7d6"/>
  <path d="m69 23 3 8 8 3-8 3-3 8-3-8-8-3 8-3 3-8Z" fill="#f5be58"/>
  <text x="88" y="39" fill="#fff7d6" font-family="Georgia, serif" font-size="26" font-weight="700" letter-spacing="1.2">Naksharix</text>
  <text x="90" y="58" fill="#f5be58" font-family="Arial, sans-serif" font-size="10" font-weight="700" letter-spacing="3">UNLOCK YOUR COSMIC DESTINY</text>
</svg>
